<svg width="550" height="659" viewBox="0 0 550 659" fill="none" xmlns="http://www.w3.org/2000/svg">
<rect opacity="0.8" width="550" height="659" rx="20"/>
<path d="M147.816 507.112H142.216L145.8 498.536H149.48L147.816 507.112ZM155.08 507.112H149.512L153.096 498.536H156.744L155.08 507.112ZM189.862 502.952C192.08 502.952 193.84 503.624 195.142 504.968C196.464 506.312 197.126 508.179 197.126 510.568V521H191.686V511.304C191.686 510.152 191.376 509.267 190.758 508.648C190.16 508.008 189.328 507.688 188.262 507.688C187.195 507.688 186.352 508.008 185.734 508.648C185.136 509.267 184.838 510.152 184.838 511.304V521H179.398V511.304C179.398 510.152 179.088 509.267 178.47 508.648C177.872 508.008 177.04 507.688 175.974 507.688C174.907 507.688 174.064 508.008 173.446 508.648C172.848 509.267 172.55 510.152 172.55 511.304V521H167.078V503.144H172.55V505.384C173.104 504.637 173.83 504.051 174.726 503.624C175.622 503.176 176.635 502.952 177.766 502.952C179.11 502.952 180.304 503.24 181.35 503.816C182.416 504.392 183.248 505.213 183.846 506.28C184.464 505.299 185.307 504.499 186.374 503.88C187.44 503.261 188.603 502.952 189.862 502.952ZM199.865 512.04C199.865 510.205 200.206 508.595 200.889 507.208C201.593 505.821 202.542 504.755 203.737 504.008C204.931 503.261 206.265 502.888 207.737 502.888C208.995 502.888 210.094 503.144 211.033 503.656C211.993 504.168 212.729 504.84 213.241 505.672V503.144H218.713V521H213.241V518.472C212.707 519.304 211.961 519.976 211.001 520.488C210.062 521 208.963 521.256 207.705 521.256C206.254 521.256 204.931 520.883 203.737 520.136C202.542 519.368 201.593 518.291 200.889 516.904C200.206 515.496 199.865 513.875 199.865 512.04ZM213.241 512.072C213.241 510.707 212.857 509.629 212.089 508.84C211.342 508.051 210.425 507.656 209.337 507.656C208.249 507.656 207.321 508.051 206.553 508.84C205.806 509.608 205.433 510.675 205.433 512.04C205.433 513.405 205.806 514.493 206.553 515.304C207.321 516.093 208.249 516.488 209.337 516.488C210.425 516.488 211.342 516.093 212.089 515.304C212.857 514.515 213.241 513.437 213.241 512.072ZM240.304 503.144V521H234.832V518.568C234.277 519.357 233.52 519.997 232.56 520.488C231.621 520.957 230.576 521.192 229.424 521.192C228.058 521.192 226.853 520.893 225.808 520.296C224.762 519.677 223.952 518.792 223.376 517.64C222.8 516.488 222.512 515.133 222.512 513.576V503.144H227.952V512.84C227.952 514.035 228.261 514.963 228.88 515.624C229.498 516.285 230.33 516.616 231.376 516.616C232.442 516.616 233.285 516.285 233.904 515.624C234.522 514.963 234.832 514.035 234.832 512.84V503.144H240.304ZM261.895 502.952C263.986 502.952 265.65 503.635 266.887 505C268.146 506.344 268.775 508.2 268.775 510.568V521H263.335V511.304C263.335 510.109 263.026 509.181 262.407 508.52C261.789 507.859 260.957 507.528 259.911 507.528C258.866 507.528 258.034 507.859 257.415 508.52C256.797 509.181 256.487 510.109 256.487 511.304V521H251.015V503.144H256.487V505.512C257.042 504.723 257.789 504.104 258.727 503.656C259.666 503.187 260.722 502.952 261.895 502.952ZM279.362 502.888C280.62 502.888 281.719 503.144 282.658 503.656C283.618 504.168 284.354 504.84 284.866 505.672V503.144H290.338V520.968C290.338 522.611 290.007 524.093 289.346 525.416C288.706 526.76 287.714 527.827 286.37 528.616C285.047 529.405 283.394 529.8 281.41 529.8C278.764 529.8 276.62 529.171 274.978 527.912C273.335 526.675 272.396 524.989 272.162 522.856H277.57C277.74 523.539 278.146 524.072 278.786 524.456C279.426 524.861 280.215 525.064 281.154 525.064C282.284 525.064 283.18 524.733 283.842 524.072C284.524 523.432 284.866 522.397 284.866 520.968V518.44C284.332 519.272 283.596 519.955 282.658 520.488C281.719 521 280.62 521.256 279.362 521.256C277.89 521.256 276.556 520.883 275.362 520.136C274.167 519.368 273.218 518.291 272.514 516.904C271.831 515.496 271.49 513.875 271.49 512.04C271.49 510.205 271.831 508.595 272.514 507.208C273.218 505.821 274.167 504.755 275.362 504.008C276.556 503.261 277.89 502.888 279.362 502.888ZM284.866 512.072C284.866 510.707 284.482 509.629 283.714 508.84C282.967 508.051 282.05 507.656 280.962 507.656C279.874 507.656 278.946 508.051 278.178 508.84C277.431 509.608 277.058 510.675 277.058 512.04C277.058 513.405 277.431 514.493 278.178 515.304C278.946 516.093 279.874 516.488 280.962 516.488C282.05 516.488 282.967 516.093 283.714 515.304C284.482 514.515 284.866 513.437 284.866 512.072ZM297.049 501.288C296.089 501.288 295.299 501.011 294.681 500.456C294.083 499.88 293.785 499.176 293.785 498.344C293.785 497.491 294.083 496.787 294.681 496.232C295.299 495.656 296.089 495.368 297.049 495.368C297.987 495.368 298.755 495.656 299.353 496.232C299.971 496.787 300.281 497.491 300.281 498.344C300.281 499.176 299.971 499.88 299.353 500.456C298.755 501.011 297.987 501.288 297.049 501.288ZM299.769 503.144V521H294.297V503.144H299.769ZM314.614 502.952C316.705 502.952 318.369 503.635 319.606 505C320.865 506.344 321.494 508.2 321.494 510.568V521H316.054V511.304C316.054 510.109 315.745 509.181 315.126 508.52C314.507 507.859 313.675 507.528 312.63 507.528C311.585 507.528 310.753 507.859 310.134 508.52C309.515 509.181 309.206 510.109 309.206 511.304V521H303.734V503.144H309.206V505.512C309.761 504.723 310.507 504.104 311.446 503.656C312.385 503.187 313.441 502.952 314.614 502.952ZM342.128 511.784C342.128 512.296 342.097 512.829 342.033 513.384H329.649C329.734 514.493 330.086 515.347 330.705 515.944C331.345 516.52 332.123 516.808 333.041 516.808C334.406 516.808 335.355 516.232 335.889 515.08H341.713C341.414 516.253 340.87 517.309 340.081 518.248C339.313 519.187 338.342 519.923 337.169 520.456C335.995 520.989 334.683 521.256 333.233 521.256C331.483 521.256 329.926 520.883 328.561 520.136C327.195 519.389 326.129 518.323 325.361 516.936C324.593 515.549 324.209 513.928 324.209 512.072C324.209 510.216 324.582 508.595 325.329 507.208C326.097 505.821 327.163 504.755 328.529 504.008C329.894 503.261 331.462 502.888 333.233 502.888C334.961 502.888 336.497 503.251 337.841 503.976C339.185 504.701 340.23 505.736 340.977 507.08C341.745 508.424 342.128 509.992 342.128 511.784ZM336.529 510.344C336.529 509.405 336.209 508.659 335.569 508.104C334.929 507.549 334.129 507.272 333.169 507.272C332.251 507.272 331.473 507.539 330.833 508.072C330.214 508.605 329.83 509.363 329.681 510.344H336.529ZM350.487 505.672C351.021 504.84 351.757 504.168 352.695 503.656C353.634 503.144 354.733 502.888 355.991 502.888C357.463 502.888 358.797 503.261 359.991 504.008C361.186 504.755 362.125 505.821 362.807 507.208C363.511 508.595 363.863 510.205 363.863 512.04C363.863 513.875 363.511 515.496 362.807 516.904C362.125 518.291 361.186 519.368 359.991 520.136C358.797 520.883 357.463 521.256 355.991 521.256C354.754 521.256 353.655 521 352.695 520.488C351.757 519.976 351.021 519.315 350.487 518.504V529.512H345.015V503.144H350.487V505.672ZM358.295 512.04C358.295 510.675 357.911 509.608 357.143 508.84C356.397 508.051 355.469 507.656 354.359 507.656C353.271 507.656 352.343 508.051 351.575 508.84C350.829 509.629 350.455 510.707 350.455 512.072C350.455 513.437 350.829 514.515 351.575 515.304C352.343 516.093 353.271 516.488 354.359 516.488C355.447 516.488 356.375 516.093 357.143 515.304C357.911 514.493 358.295 513.405 358.295 512.04ZM373.294 497.288C375.577 497.288 377.401 497.885 378.766 499.08C380.153 500.275 380.846 501.96 380.846 504.136C380.846 506.141 380.185 507.709 378.862 508.84C377.561 509.949 375.833 510.515 373.678 510.536L373.518 512.936H368.718L368.558 506.984H370.478C372.121 506.984 373.369 506.781 374.222 506.376C375.097 505.971 375.534 505.235 375.534 504.168C375.534 503.421 375.331 502.835 374.926 502.408C374.521 501.981 373.955 501.768 373.23 501.768C372.462 501.768 371.865 501.992 371.438 502.44C371.011 502.867 370.798 503.453 370.798 504.2H365.646C365.603 502.899 365.87 501.725 366.446 500.68C367.043 499.635 367.918 498.813 369.07 498.216C370.243 497.597 371.651 497.288 373.294 497.288ZM371.182 521.256C370.222 521.256 369.433 520.979 368.814 520.424C368.217 519.848 367.918 519.144 367.918 518.312C367.918 517.459 368.217 516.744 368.814 516.168C369.433 515.592 370.222 515.304 371.182 515.304C372.121 515.304 372.889 515.592 373.486 516.168C374.105 516.744 374.414 517.459 374.414 518.312C374.414 519.144 374.105 519.848 373.486 520.424C372.889 520.979 372.121 521.256 371.182 521.256ZM149.768 543.888C151.027 543.888 152.125 544.144 153.064 544.656C154.024 545.168 154.76 545.84 155.272 546.672V544.144H160.744V561.968C160.744 563.611 160.413 565.093 159.752 566.416C159.112 567.76 158.12 568.827 156.776 569.616C155.453 570.405 153.8 570.8 151.816 570.8C149.171 570.8 147.027 570.171 145.384 568.912C143.741 567.675 142.803 565.989 142.568 563.856H147.976C148.147 564.539 148.552 565.072 149.192 565.456C149.832 565.861 150.621 566.064 151.56 566.064C152.691 566.064 153.587 565.733 154.248 565.072C154.931 564.432 155.272 563.397 155.272 561.968V559.44C154.739 560.272 154.003 560.955 153.064 561.488C152.125 562 151.027 562.256 149.768 562.256C148.296 562.256 146.963 561.883 145.768 561.136C144.573 560.368 143.624 559.291 142.92 557.904C142.237 556.496 141.896 554.875 141.896 553.04C141.896 551.205 142.237 549.595 142.92 548.208C143.624 546.821 144.573 545.755 145.768 545.008C146.963 544.261 148.296 543.888 149.768 543.888ZM155.272 553.072C155.272 551.707 154.888 550.629 154.12 549.84C153.373 549.051 152.456 548.656 151.368 548.656C150.28 548.656 149.352 549.051 148.584 549.84C147.837 550.608 147.464 551.675 147.464 553.04C147.464 554.405 147.837 555.493 148.584 556.304C149.352 557.093 150.28 557.488 151.368 557.488C152.456 557.488 153.373 557.093 154.12 556.304C154.888 555.515 155.272 554.437 155.272 553.072ZM163.615 553.04C163.615 551.205 163.956 549.595 164.639 548.208C165.343 546.821 166.292 545.755 167.487 545.008C168.681 544.261 170.015 543.888 171.487 543.888C172.745 543.888 173.844 544.144 174.783 544.656C175.743 545.168 176.479 545.84 176.991 546.672V544.144H182.463V562H176.991V559.472C176.457 560.304 175.711 560.976 174.751 561.488C173.812 562 172.713 562.256 171.455 562.256C170.004 562.256 168.681 561.883 167.487 561.136C166.292 560.368 165.343 559.291 164.639 557.904C163.956 556.496 163.615 554.875 163.615 553.04ZM176.991 553.072C176.991 551.707 176.607 550.629 175.839 549.84C175.092 549.051 174.175 548.656 173.087 548.656C171.999 548.656 171.071 549.051 170.303 549.84C169.556 550.608 169.183 551.675 169.183 553.04C169.183 554.405 169.556 555.493 170.303 556.304C171.071 557.093 171.999 557.488 173.087 557.488C174.175 557.488 175.092 557.093 175.839 556.304C176.607 555.515 176.991 554.437 176.991 553.072ZM209.206 543.952C211.424 543.952 213.184 544.624 214.486 545.968C215.808 547.312 216.47 549.179 216.47 551.568V562H211.03V552.304C211.03 551.152 210.72 550.267 210.102 549.648C209.504 549.008 208.672 548.688 207.606 548.688C206.539 548.688 205.696 549.008 205.078 549.648C204.48 550.267 204.182 551.152 204.182 552.304V562H198.742V552.304C198.742 551.152 198.432 550.267 197.814 549.648C197.216 549.008 196.384 548.688 195.318 548.688C194.251 548.688 193.408 549.008 192.79 549.648C192.192 550.267 191.894 551.152 191.894 552.304V562H186.422V544.144H191.894V546.384C192.448 545.637 193.174 545.051 194.07 544.624C194.966 544.176 195.979 543.952 197.11 543.952C198.454 543.952 199.648 544.24 200.694 544.816C201.76 545.392 202.592 546.213 203.19 547.28C203.808 546.299 204.651 545.499 205.718 544.88C206.784 544.261 207.947 543.952 209.206 543.952ZM225.769 546.672C226.302 545.84 227.038 545.168 227.977 544.656C228.915 544.144 230.014 543.888 231.273 543.888C232.745 543.888 234.078 544.261 235.273 545.008C236.467 545.755 237.406 546.821 238.089 548.208C238.793 549.595 239.145 551.205 239.145 553.04C239.145 554.875 238.793 556.496 238.089 557.904C237.406 559.291 236.467 560.368 235.273 561.136C234.078 561.883 232.745 562.256 231.273 562.256C230.035 562.256 228.937 562 227.977 561.488C227.038 560.976 226.302 560.315 225.769 559.504V570.512H220.297V544.144H225.769V546.672ZM233.577 553.04C233.577 551.675 233.193 550.608 232.425 549.84C231.678 549.051 230.75 548.656 229.641 548.656C228.553 548.656 227.625 549.051 226.857 549.84C226.11 550.629 225.737 551.707 225.737 553.072C225.737 554.437 226.11 555.515 226.857 556.304C227.625 557.093 228.553 557.488 229.641 557.488C230.729 557.488 231.657 557.093 232.425 556.304C233.193 555.493 233.577 554.405 233.577 553.04ZM240.927 553.04C240.927 551.205 241.269 549.595 241.951 548.208C242.655 546.821 243.605 545.755 244.799 545.008C245.994 544.261 247.327 543.888 248.799 543.888C250.058 543.888 251.157 544.144 252.095 544.656C253.055 545.168 253.791 545.84 254.303 546.672V544.144H259.775V562H254.303V559.472C253.77 560.304 253.023 560.976 252.063 561.488C251.125 562 250.026 562.256 248.767 562.256C247.317 562.256 245.994 561.883 244.799 561.136C243.605 560.368 242.655 559.291 241.951 557.904C241.269 556.496 240.927 554.875 240.927 553.04ZM254.303 553.072C254.303 551.707 253.919 550.629 253.151 549.84C252.405 549.051 251.487 548.656 250.399 548.656C249.311 548.656 248.383 549.051 247.615 549.84C246.869 550.608 246.495 551.675 246.495 553.04C246.495 554.405 246.869 555.493 247.615 556.304C248.383 557.093 249.311 557.488 250.399 557.488C251.487 557.488 252.405 557.093 253.151 556.304C253.919 555.515 254.303 554.437 254.303 553.072ZM274.614 543.952C276.705 543.952 278.369 544.635 279.606 546C280.865 547.344 281.494 549.2 281.494 551.568V562H276.054V552.304C276.054 551.109 275.745 550.181 275.126 549.52C274.507 548.859 273.675 548.528 272.63 548.528C271.585 548.528 270.753 548.859 270.134 549.52C269.515 550.181 269.206 551.109 269.206 552.304V562H263.734V544.144H269.206V546.512C269.761 545.723 270.507 545.104 271.446 544.656C272.385 544.187 273.441 543.952 274.614 543.952ZM292.081 543.888C293.339 543.888 294.438 544.144 295.377 544.656C296.337 545.168 297.073 545.84 297.585 546.672V544.144H303.057V561.968C303.057 563.611 302.726 565.093 302.065 566.416C301.425 567.76 300.433 568.827 299.089 569.616C297.766 570.405 296.113 570.8 294.129 570.8C291.483 570.8 289.339 570.171 287.697 568.912C286.054 567.675 285.115 565.989 284.881 563.856H290.289C290.459 564.539 290.865 565.072 291.505 565.456C292.145 565.861 292.934 566.064 293.873 566.064C295.003 566.064 295.899 565.733 296.561 565.072C297.243 564.432 297.585 563.397 297.585 561.968V559.44C297.051 560.272 296.315 560.955 295.377 561.488C294.438 562 293.339 562.256 292.081 562.256C290.609 562.256 289.275 561.883 288.081 561.136C286.886 560.368 285.937 559.291 285.233 557.904C284.55 556.496 284.209 554.875 284.209 553.04C284.209 551.205 284.55 549.595 285.233 548.208C285.937 546.821 286.886 545.755 288.081 545.008C289.275 544.261 290.609 543.888 292.081 543.888ZM297.585 553.072C297.585 551.707 297.201 550.629 296.433 549.84C295.686 549.051 294.769 548.656 293.681 548.656C292.593 548.656 291.665 549.051 290.897 549.84C290.15 550.608 289.777 551.675 289.777 553.04C289.777 554.405 290.15 555.493 290.897 556.304C291.665 557.093 292.593 557.488 293.681 557.488C294.769 557.488 295.686 557.093 296.433 556.304C297.201 555.515 297.585 554.437 297.585 553.072ZM319.269 546.672C319.781 545.84 320.517 545.168 321.477 544.656C322.437 544.144 323.535 543.888 324.773 543.888C326.245 543.888 327.578 544.261 328.773 545.008C329.967 545.755 330.906 546.821 331.589 548.208C332.293 549.595 332.645 551.205 332.645 553.04C332.645 554.875 332.293 556.496 331.589 557.904C330.906 559.291 329.967 560.368 328.773 561.136C327.578 561.883 326.245 562.256 324.773 562.256C323.514 562.256 322.415 562.011 321.477 561.52C320.538 561.008 319.802 560.336 319.269 559.504V562H313.797V538.32H319.269V546.672ZM327.077 553.04C327.077 551.675 326.693 550.608 325.925 549.84C325.178 549.051 324.25 548.656 323.141 548.656C322.053 548.656 321.125 549.051 320.357 549.84C319.61 550.629 319.237 551.707 319.237 553.072C319.237 554.437 319.61 555.515 320.357 556.304C321.125 557.093 322.053 557.488 323.141 557.488C324.229 557.488 325.157 557.093 325.925 556.304C326.693 555.493 327.077 554.405 327.077 553.04ZM334.427 553.04C334.427 551.205 334.769 549.595 335.451 548.208C336.155 546.821 337.105 545.755 338.299 545.008C339.494 544.261 340.827 543.888 342.299 543.888C343.558 543.888 344.657 544.144 345.595 544.656C346.555 545.168 347.291 545.84 347.803 546.672V544.144H353.275V562H347.803V559.472C347.27 560.304 346.523 560.976 345.563 561.488C344.625 562 343.526 562.256 342.267 562.256C340.817 562.256 339.494 561.883 338.299 561.136C337.105 560.368 336.155 559.291 335.451 557.904C334.769 556.496 334.427 554.875 334.427 553.04ZM347.803 553.072C347.803 551.707 347.419 550.629 346.651 549.84C345.905 549.051 344.987 548.656 343.899 548.656C342.811 548.656 341.883 549.051 341.115 549.84C340.369 550.608 339.995 551.675 339.995 553.04C339.995 554.405 340.369 555.493 341.115 556.304C341.883 557.093 342.811 557.488 343.899 557.488C344.987 557.488 345.905 557.093 346.651 556.304C347.419 555.515 347.803 554.437 347.803 553.072ZM368.114 543.952C370.205 543.952 371.869 544.635 373.106 546C374.365 547.344 374.994 549.2 374.994 551.568V562H369.554V552.304C369.554 551.109 369.245 550.181 368.626 549.52C368.007 548.859 367.175 548.528 366.13 548.528C365.085 548.528 364.253 548.859 363.634 549.52C363.015 550.181 362.706 551.109 362.706 552.304V562H357.234V544.144H362.706V546.512C363.261 545.723 364.007 545.104 364.946 544.656C365.885 544.187 366.941 543.952 368.114 543.952ZM385.581 543.888C386.839 543.888 387.938 544.144 388.877 544.656C389.837 545.168 390.573 545.84 391.085 546.672V544.144H396.557V561.968C396.557 563.611 396.226 565.093 395.565 566.416C394.925 567.76 393.933 568.827 392.589 569.616C391.266 570.405 389.613 570.8 387.629 570.8C384.983 570.8 382.839 570.171 381.197 568.912C379.554 567.675 378.615 565.989 378.381 563.856H383.789C383.959 564.539 384.365 565.072 385.005 565.456C385.645 565.861 386.434 566.064 387.373 566.064C388.503 566.064 389.399 565.733 390.061 565.072C390.743 564.432 391.085 563.397 391.085 561.968V559.44C390.551 560.272 389.815 560.955 388.877 561.488C387.938 562 386.839 562.256 385.581 562.256C384.109 562.256 382.775 561.883 381.581 561.136C380.386 560.368 379.437 559.291 378.733 557.904C378.05 556.496 377.709 554.875 377.709 553.04C377.709 551.205 378.05 549.595 378.733 548.208C379.437 546.821 380.386 545.755 381.581 545.008C382.775 544.261 384.109 543.888 385.581 543.888ZM391.085 553.072C391.085 551.707 390.701 550.629 389.933 549.84C389.186 549.051 388.269 548.656 387.181 548.656C386.093 548.656 385.165 549.051 384.397 549.84C383.65 550.608 383.277 551.675 383.277 553.04C383.277 554.405 383.65 555.493 384.397 556.304C385.165 557.093 386.093 557.488 387.181 557.488C388.269 557.488 389.186 557.093 389.933 556.304C390.701 555.515 391.085 554.437 391.085 553.072ZM417.347 552.784C417.347 553.296 417.315 553.829 417.251 554.384H404.867C404.953 555.493 405.305 556.347 405.923 556.944C406.563 557.52 407.342 557.808 408.259 557.808C409.625 557.808 410.574 557.232 411.107 556.08H416.931C416.633 557.253 416.089 558.309 415.299 559.248C414.531 560.187 413.561 560.923 412.387 561.456C411.214 561.989 409.902 562.256 408.451 562.256C406.702 562.256 405.145 561.883 403.779 561.136C402.414 560.389 401.347 559.323 400.579 557.936C399.811 556.549 399.427 554.928 399.427 553.072C399.427 551.216 399.801 549.595 400.547 548.208C401.315 546.821 402.382 545.755 403.747 545.008C405.113 544.261 406.681 543.888 408.451 543.888C410.179 543.888 411.715 544.251 413.059 544.976C414.403 545.701 415.449 546.736 416.195 548.08C416.963 549.424 417.347 550.992 417.347 552.784ZM411.747 551.344C411.747 550.405 411.427 549.659 410.787 549.104C410.147 548.549 409.347 548.272 408.387 548.272C407.47 548.272 406.691 548.539 406.051 549.072C405.433 549.605 405.049 550.363 404.899 551.344H411.747ZM437.066 552.784C437.066 553.296 437.034 553.829 436.97 554.384H424.586C424.671 555.493 425.023 556.347 425.642 556.944C426.282 557.52 427.061 557.808 427.978 557.808C429.343 557.808 430.293 557.232 430.826 556.08H436.65C436.351 557.253 435.807 558.309 435.018 559.248C434.25 560.187 433.279 560.923 432.106 561.456C430.933 561.989 429.621 562.256 428.17 562.256C426.421 562.256 424.863 561.883 423.498 561.136C422.133 560.389 421.066 559.323 420.298 557.936C419.53 556.549 419.146 554.928 419.146 553.072C419.146 551.216 419.519 549.595 420.266 548.208C421.034 546.821 422.101 545.755 423.466 545.008C424.831 544.261 426.399 543.888 428.17 543.888C429.898 543.888 431.434 544.251 432.778 544.976C434.122 545.701 435.167 546.736 435.914 548.08C436.682 549.424 437.066 550.992 437.066 552.784ZM431.466 551.344C431.466 550.405 431.146 549.659 430.506 549.104C429.866 548.549 429.066 548.272 428.106 548.272C427.189 548.272 426.41 548.539 425.77 549.072C425.151 549.605 424.767 550.363 424.618 551.344H431.466ZM449.905 557.36V562H447.121C445.137 562 443.59 561.52 442.481 560.56C441.371 559.579 440.817 557.989 440.817 555.792V548.688H438.641V544.144H440.817V539.792H446.289V544.144H449.873V548.688H446.289V555.856C446.289 556.389 446.417 556.773 446.673 557.008C446.929 557.243 447.355 557.36 447.953 557.36H449.905ZM148.456 579.32V603H142.984V579.32H148.456ZM160.55 603.256C158.8 603.256 157.222 602.883 155.814 602.136C154.427 601.389 153.328 600.323 152.518 598.936C151.728 597.549 151.334 595.928 151.334 594.072C151.334 592.237 151.739 590.627 152.549 589.24C153.36 587.832 154.47 586.755 155.878 586.008C157.286 585.261 158.864 584.888 160.614 584.888C162.363 584.888 163.942 585.261 165.35 586.008C166.758 586.755 167.867 587.832 168.678 589.24C169.488 590.627 169.894 592.237 169.894 594.072C169.894 595.907 169.478 597.528 168.646 598.936C167.835 600.323 166.715 601.389 165.286 602.136C163.878 602.883 162.299 603.256 160.55 603.256ZM160.55 598.52C161.595 598.52 162.48 598.136 163.206 597.368C163.952 596.6 164.326 595.501 164.326 594.072C164.326 592.643 163.963 591.544 163.238 590.776C162.534 590.008 161.659 589.624 160.614 589.624C159.547 589.624 158.662 590.008 157.958 590.776C157.254 591.523 156.902 592.621 156.902 594.072C156.902 595.501 157.243 596.6 157.926 597.368C158.63 598.136 159.504 598.52 160.55 598.52ZM180.925 603.256C179.175 603.256 177.597 602.883 176.189 602.136C174.802 601.389 173.703 600.323 172.893 598.936C172.103 597.549 171.709 595.928 171.709 594.072C171.709 592.237 172.114 590.627 172.924 589.24C173.735 587.832 174.845 586.755 176.253 586.008C177.661 585.261 179.239 584.888 180.989 584.888C182.738 584.888 184.317 585.261 185.725 586.008C187.133 586.755 188.242 587.832 189.053 589.24C189.863 590.627 190.269 592.237 190.269 594.072C190.269 595.907 189.853 597.528 189.021 598.936C188.21 600.323 187.09 601.389 185.661 602.136C184.253 602.883 182.674 603.256 180.925 603.256ZM180.925 598.52C181.97 598.52 182.855 598.136 183.581 597.368C184.327 596.6 184.701 595.501 184.701 594.072C184.701 592.643 184.338 591.544 183.613 590.776C182.909 590.008 182.034 589.624 180.989 589.624C179.922 589.624 179.037 590.008 178.333 590.776C177.629 591.523 177.277 592.621 177.277 594.072C177.277 595.501 177.618 596.6 178.301 597.368C179.005 598.136 179.879 598.52 180.925 598.52ZM204.785 589.112H199.185L202.769 580.536H206.449L204.785 589.112ZM212.049 589.112H206.481L210.065 580.536H213.713L212.049 589.112Z" fill="white"/>
</svg>
