<svg width="1234" height="575" viewBox="0 0 1234 575" fill="none" xmlns="http://www.w3.org/2000/svg">
<rect width="1234" height="575" rx="20"/>
<path d="M286.552 151.5C286.552 148.067 287.318 145 288.852 142.3C290.418 139.567 292.535 137.45 295.202 135.95C297.902 134.417 300.918 133.65 304.252 133.65C308.152 133.65 311.568 134.65 314.502 136.65C317.435 138.65 319.485 141.417 320.652 144.95H312.602C311.802 143.283 310.668 142.033 309.202 141.2C307.768 140.367 306.102 139.95 304.202 139.95C302.168 139.95 300.352 140.433 298.752 141.4C297.185 142.333 295.952 143.667 295.052 145.4C294.185 147.133 293.752 149.167 293.752 151.5C293.752 153.8 294.185 155.833 295.052 157.6C295.952 159.333 297.185 160.683 298.752 161.65C300.352 162.583 302.168 163.05 304.202 163.05C306.102 163.05 307.768 162.633 309.202 161.8C310.668 160.933 311.802 159.667 312.602 158H320.652C319.485 161.567 317.435 164.35 314.502 166.35C311.602 168.317 308.185 169.3 304.252 169.3C300.918 169.3 297.902 168.55 295.202 167.05C292.535 165.517 290.418 163.4 288.852 160.7C287.318 158 286.552 154.933 286.552 151.5ZM324.831 155.05C324.831 152.25 325.381 149.767 326.481 147.6C327.614 145.433 329.131 143.767 331.031 142.6C332.964 141.433 335.114 140.85 337.481 140.85C339.547 140.85 341.347 141.267 342.881 142.1C344.447 142.933 345.697 143.983 346.631 145.25V141.3H353.681V169H346.631V164.95C345.731 166.25 344.481 167.333 342.881 168.2C341.314 169.033 339.497 169.45 337.431 169.45C335.097 169.45 332.964 168.85 331.031 167.65C329.131 166.45 327.614 164.767 326.481 162.6C325.381 160.4 324.831 157.883 324.831 155.05ZM346.631 155.15C346.631 153.45 346.297 152 345.631 150.8C344.964 149.567 344.064 148.633 342.931 148C341.797 147.333 340.581 147 339.281 147C337.981 147 336.781 147.317 335.681 147.95C334.581 148.583 333.681 149.517 332.981 150.75C332.314 151.95 331.981 153.383 331.981 155.05C331.981 156.717 332.314 158.183 332.981 159.45C333.681 160.683 334.581 161.633 335.681 162.3C336.814 162.967 338.014 163.3 339.281 163.3C340.581 163.3 341.797 162.983 342.931 162.35C344.064 161.683 344.964 160.75 345.631 159.55C346.297 158.317 346.631 156.85 346.631 155.15ZM367.517 145.6C368.417 144.133 369.584 142.983 371.017 142.15C372.484 141.317 374.151 140.9 376.017 140.9V148.25H374.167C371.967 148.25 370.301 148.767 369.167 149.8C368.067 150.833 367.517 152.633 367.517 155.2V169H360.517V141.3H367.517V145.6ZM384.282 138C383.049 138 382.016 137.617 381.182 136.85C380.382 136.05 379.982 135.067 379.982 133.9C379.982 132.733 380.382 131.767 381.182 131C382.016 130.2 383.049 129.8 384.282 129.8C385.516 129.8 386.532 130.2 387.332 131C388.166 131.767 388.582 132.733 388.582 133.9C388.582 135.067 388.166 136.05 387.332 136.85C386.532 137.617 385.516 138 384.282 138ZM387.732 141.3V169H380.732V141.3H387.732ZM430.312 134.1V139.75H421.012V169H414.012V139.75H404.712V134.1H430.312ZM461.17 154.55C461.17 155.55 461.103 156.45 460.97 157.25H440.72C440.886 159.25 441.586 160.817 442.82 161.95C444.053 163.083 445.57 163.65 447.37 163.65C449.97 163.65 451.82 162.533 452.92 160.3H460.47C459.67 162.967 458.136 165.167 455.87 166.9C453.603 168.6 450.82 169.45 447.52 169.45C444.853 169.45 442.453 168.867 440.32 167.7C438.22 166.5 436.57 164.817 435.37 162.65C434.203 160.483 433.62 157.983 433.62 155.15C433.62 152.283 434.203 149.767 435.37 147.6C436.536 145.433 438.17 143.767 440.27 142.6C442.37 141.433 444.786 140.85 447.52 140.85C450.153 140.85 452.503 141.417 454.57 142.55C456.67 143.683 458.286 145.3 459.42 147.4C460.586 149.467 461.17 151.85 461.17 154.55ZM453.92 152.55C453.886 150.75 453.236 149.317 451.97 148.25C450.703 147.15 449.153 146.6 447.32 146.6C445.586 146.6 444.12 147.133 442.92 148.2C441.753 149.233 441.036 150.683 440.77 152.55H453.92ZM500.679 140.9C504.079 140.9 506.812 141.95 508.879 144.05C510.979 146.117 512.029 149.017 512.029 152.75V169H505.029V153.7C505.029 151.533 504.479 149.883 503.379 148.75C502.279 147.583 500.779 147 498.879 147C496.979 147 495.462 147.583 494.329 148.75C493.229 149.883 492.679 151.533 492.679 153.7V169H485.679V153.7C485.679 151.533 485.129 149.883 484.029 148.75C482.929 147.583 481.429 147 479.529 147C477.596 147 476.062 147.583 474.929 148.75C473.829 149.883 473.279 151.533 473.279 153.7V169H466.279V141.3H473.279V144.65C474.179 143.483 475.329 142.567 476.729 141.9C478.162 141.233 479.729 140.9 481.429 140.9C483.596 140.9 485.529 141.367 487.229 142.3C488.929 143.2 490.246 144.5 491.179 146.2C492.079 144.6 493.379 143.317 495.079 142.35C496.812 141.383 498.679 140.9 500.679 140.9ZM525.672 145.3C526.572 144.033 527.805 142.983 529.372 142.15C530.972 141.283 532.788 140.85 534.822 140.85C537.188 140.85 539.322 141.433 541.222 142.6C543.155 143.767 544.672 145.433 545.772 147.6C546.905 149.733 547.472 152.217 547.472 155.05C547.472 157.883 546.905 160.4 545.772 162.6C544.672 164.767 543.155 166.45 541.222 167.65C539.322 168.85 537.188 169.45 534.822 169.45C532.788 169.45 530.988 169.033 529.422 168.2C527.888 167.367 526.638 166.317 525.672 165.05V182.2H518.672V141.3H525.672V145.3ZM540.322 155.05C540.322 153.383 539.972 151.95 539.272 150.75C538.605 149.517 537.705 148.583 536.572 147.95C535.472 147.317 534.272 147 532.972 147C531.705 147 530.505 147.333 529.372 148C528.272 148.633 527.372 149.567 526.672 150.8C526.005 152.033 525.672 153.483 525.672 155.15C525.672 156.817 526.005 158.267 526.672 159.5C527.372 160.733 528.272 161.683 529.372 162.35C530.505 162.983 531.705 163.3 532.972 163.3C534.272 163.3 535.472 162.967 536.572 162.3C537.705 161.633 538.605 160.683 539.272 159.45C539.972 158.217 540.322 156.75 540.322 155.05ZM550.758 155.05C550.758 152.25 551.308 149.767 552.408 147.6C553.542 145.433 555.058 143.767 556.958 142.6C558.892 141.433 561.042 140.85 563.408 140.85C565.475 140.85 567.275 141.267 568.808 142.1C570.375 142.933 571.625 143.983 572.558 145.25V141.3H579.608V169H572.558V164.95C571.658 166.25 570.408 167.333 568.808 168.2C567.242 169.033 565.425 169.45 563.358 169.45C561.025 169.45 558.892 168.85 556.958 167.65C555.058 166.45 553.542 164.767 552.408 162.6C551.308 160.4 550.758 157.883 550.758 155.05ZM572.558 155.15C572.558 153.45 572.225 152 571.558 150.8C570.892 149.567 569.992 148.633 568.858 148C567.725 147.333 566.508 147 565.208 147C563.908 147 562.708 147.317 561.608 147.95C560.508 148.583 559.608 149.517 558.908 150.75C558.242 151.95 557.908 153.383 557.908 155.05C557.908 156.717 558.242 158.183 558.908 159.45C559.608 160.683 560.508 161.633 561.608 162.3C562.742 162.967 563.942 163.3 565.208 163.3C566.508 163.3 567.725 162.983 568.858 162.35C569.992 161.683 570.892 160.75 571.558 159.55C572.225 158.317 572.558 156.85 572.558 155.15ZM594.595 147.05V160.45C594.595 161.383 594.812 162.067 595.245 162.5C595.712 162.9 596.478 163.1 597.545 163.1H600.795V169H596.395C590.495 169 587.545 166.133 587.545 160.4V147.05H584.245V141.3H587.545V134.45H594.595V141.3H600.795V147.05H594.595ZM647.594 169H640.594L624.744 145.05V169H617.744V134.05H624.744L640.594 158.05V134.05H647.594V169ZM665.362 140.85C667.428 140.85 669.245 141.267 670.812 142.1C672.378 142.9 673.612 143.95 674.512 145.25V141.3H681.562V169.2C681.562 171.767 681.045 174.05 680.012 176.05C678.978 178.083 677.428 179.683 675.362 180.85C673.295 182.05 670.795 182.65 667.862 182.65C663.928 182.65 660.695 181.733 658.162 179.9C655.662 178.067 654.245 175.567 653.912 172.4H660.862C661.228 173.667 662.012 174.667 663.212 175.4C664.445 176.167 665.928 176.55 667.662 176.55C669.695 176.55 671.345 175.933 672.612 174.7C673.878 173.5 674.512 171.667 674.512 169.2V164.9C673.612 166.2 672.362 167.283 670.762 168.15C669.195 169.017 667.395 169.45 665.362 169.45C663.028 169.45 660.895 168.85 658.962 167.65C657.028 166.45 655.495 164.767 654.362 162.6C653.262 160.4 652.712 157.883 652.712 155.05C652.712 152.25 653.262 149.767 654.362 147.6C655.495 145.433 657.012 143.767 658.912 142.6C660.845 141.433 662.995 140.85 665.362 140.85ZM674.512 155.15C674.512 153.45 674.178 152 673.512 150.8C672.845 149.567 671.945 148.633 670.812 148C669.678 147.333 668.462 147 667.162 147C665.862 147 664.662 147.317 663.562 147.95C662.462 148.583 661.562 149.517 660.862 150.75C660.195 151.95 659.862 153.383 659.862 155.05C659.862 156.717 660.195 158.183 660.862 159.45C661.562 160.683 662.462 161.633 663.562 162.3C664.695 162.967 665.895 163.3 667.162 163.3C668.462 163.3 669.678 162.983 670.812 162.35C671.945 161.683 672.845 160.75 673.512 159.55C674.178 158.317 674.512 156.85 674.512 155.15ZM691.948 138C690.715 138 689.682 137.617 688.848 136.85C688.048 136.05 687.648 135.067 687.648 133.9C687.648 132.733 688.048 131.767 688.848 131C689.682 130.2 690.715 129.8 691.948 129.8C693.182 129.8 694.198 130.2 694.998 131C695.832 131.767 696.248 132.733 696.248 133.9C696.248 135.067 695.832 136.05 694.998 136.85C694.198 137.617 693.182 138 691.948 138ZM695.398 141.3V169H688.398V141.3H695.398ZM717.664 140.9C720.964 140.9 723.631 141.95 725.664 144.05C727.698 146.117 728.714 149.017 728.714 152.75V169H721.714V153.7C721.714 151.5 721.164 149.817 720.064 148.65C718.964 147.45 717.464 146.85 715.564 146.85C713.631 146.85 712.098 147.45 710.964 148.65C709.864 149.817 709.314 151.5 709.314 153.7V169H702.314V141.3H709.314V144.75C710.248 143.55 711.431 142.617 712.864 141.95C714.331 141.25 715.931 140.9 717.664 140.9ZM761.121 154.55C761.121 155.55 761.054 156.45 760.921 157.25H740.671C740.838 159.25 741.538 160.817 742.771 161.95C744.004 163.083 745.521 163.65 747.321 163.65C749.921 163.65 751.771 162.533 752.871 160.3H760.421C759.621 162.967 758.088 165.167 755.821 166.9C753.554 168.6 750.771 169.45 747.471 169.45C744.804 169.45 742.404 168.867 740.271 167.7C738.171 166.5 736.521 164.817 735.321 162.65C734.154 160.483 733.571 157.983 733.571 155.15C733.571 152.283 734.154 149.767 735.321 147.6C736.488 145.433 738.121 143.767 740.221 142.6C742.321 141.433 744.738 140.85 747.471 140.85C750.104 140.85 752.454 141.417 754.521 142.55C756.621 143.683 758.238 145.3 759.371 147.4C760.538 149.467 761.121 151.85 761.121 154.55ZM753.871 152.55C753.838 150.75 753.188 149.317 751.921 148.25C750.654 147.15 749.104 146.6 747.271 146.6C745.538 146.6 744.071 147.133 742.871 148.2C741.704 149.233 740.988 150.683 740.721 152.55H753.871ZM773.23 145.3C774.13 144.033 775.364 142.983 776.93 142.15C778.53 141.283 780.347 140.85 782.38 140.85C784.747 140.85 786.88 141.433 788.78 142.6C790.714 143.767 792.23 145.433 793.33 147.6C794.464 149.733 795.03 152.217 795.03 155.05C795.03 157.883 794.464 160.4 793.33 162.6C792.23 164.767 790.714 166.45 788.78 167.65C786.88 168.85 784.747 169.45 782.38 169.45C780.347 169.45 778.547 169.033 776.98 168.2C775.447 167.367 774.197 166.317 773.23 165.05V182.2H766.23V141.3H773.23V145.3ZM787.88 155.05C787.88 153.383 787.53 151.95 786.83 150.75C786.164 149.517 785.264 148.583 784.13 147.95C783.03 147.317 781.83 147 780.53 147C779.264 147 778.064 147.333 776.93 148C775.83 148.633 774.93 149.567 774.23 150.8C773.564 152.033 773.23 153.483 773.23 155.15C773.23 156.817 773.564 158.267 774.23 159.5C774.93 160.733 775.83 161.683 776.93 162.35C778.064 162.983 779.264 163.3 780.53 163.3C781.83 163.3 783.03 162.967 784.13 162.3C785.264 161.633 786.164 160.683 786.83 159.45C787.53 158.217 787.88 156.75 787.88 155.05ZM839.781 134.1L827.981 156.85V169H820.981V156.85L809.131 134.1H817.031L824.531 150.05L831.981 134.1H839.781ZM842.018 155.05C842.018 152.25 842.568 149.767 843.668 147.6C844.801 145.433 846.318 143.767 848.218 142.6C850.151 141.433 852.301 140.85 854.668 140.85C856.735 140.85 858.535 141.267 860.068 142.1C861.635 142.933 862.885 143.983 863.818 145.25V141.3H870.868V169H863.818V164.95C862.918 166.25 861.668 167.333 860.068 168.2C858.501 169.033 856.685 169.45 854.618 169.45C852.285 169.45 850.151 168.85 848.218 167.65C846.318 166.45 844.801 164.767 843.668 162.6C842.568 160.4 842.018 157.883 842.018 155.05ZM863.818 155.15C863.818 153.45 863.485 152 862.818 150.8C862.151 149.567 861.251 148.633 860.118 148C858.985 147.333 857.768 147 856.468 147C855.168 147 853.968 147.317 852.868 147.95C851.768 148.583 850.868 149.517 850.168 150.75C849.501 151.95 849.168 153.383 849.168 155.05C849.168 156.717 849.501 158.183 850.168 159.45C850.868 160.683 851.768 161.633 852.868 162.3C854.001 162.967 855.201 163.3 856.468 163.3C857.768 163.3 858.985 162.983 860.118 162.35C861.251 161.683 862.151 160.75 862.818 159.55C863.485 158.317 863.818 156.85 863.818 155.15ZM893.055 140.9C896.355 140.9 899.022 141.95 901.055 144.05C903.088 146.117 904.105 149.017 904.105 152.75V169H897.105V153.7C897.105 151.5 896.555 149.817 895.455 148.65C894.355 147.45 892.855 146.85 890.955 146.85C889.022 146.85 887.488 147.45 886.355 148.65C885.255 149.817 884.705 151.5 884.705 153.7V169H877.705V141.3H884.705V144.75C885.638 143.55 886.822 142.617 888.255 141.95C889.722 141.25 891.322 140.9 893.055 140.9ZM921.612 140.85C923.678 140.85 925.495 141.267 927.062 142.1C928.628 142.9 929.862 143.95 930.762 145.25V141.3H937.812V169.2C937.812 171.767 937.295 174.05 936.262 176.05C935.228 178.083 933.678 179.683 931.612 180.85C929.545 182.05 927.045 182.65 924.112 182.65C920.178 182.65 916.945 181.733 914.412 179.9C911.912 178.067 910.495 175.567 910.162 172.4H917.112C917.478 173.667 918.262 174.667 919.462 175.4C920.695 176.167 922.178 176.55 923.912 176.55C925.945 176.55 927.595 175.933 928.862 174.7C930.128 173.5 930.762 171.667 930.762 169.2V164.9C929.862 166.2 928.612 167.283 927.012 168.15C925.445 169.017 923.645 169.45 921.612 169.45C919.278 169.45 917.145 168.85 915.212 167.65C913.278 166.45 911.745 164.767 910.612 162.6C909.512 160.4 908.962 157.883 908.962 155.05C908.962 152.25 909.512 149.767 910.612 147.6C911.745 145.433 913.262 143.767 915.162 142.6C917.095 141.433 919.245 140.85 921.612 140.85ZM930.762 155.15C930.762 153.45 930.428 152 929.762 150.8C929.095 149.567 928.195 148.633 927.062 148C925.928 147.333 924.712 147 923.412 147C922.112 147 920.912 147.317 919.812 147.95C918.712 148.583 917.812 149.517 917.112 150.75C916.445 151.95 916.112 153.383 916.112 155.05C916.112 156.717 916.445 158.183 917.112 159.45C917.812 160.683 918.712 161.633 919.812 162.3C920.945 162.967 922.145 163.3 923.412 163.3C924.712 163.3 925.928 162.983 927.062 162.35C928.195 161.683 929.095 160.75 929.762 159.55C930.428 158.317 930.762 156.85 930.762 155.15ZM370.48 196.728C370.48 199.656 369.808 202.344 368.464 204.792C367.12 207.192 365.056 209.136 362.272 210.624C359.488 212.112 356.032 212.856 351.904 212.856H344.272V231H331.96V180.456H351.904C355.936 180.456 359.344 181.152 362.128 182.544C364.912 183.936 367 185.856 368.392 188.304C369.784 190.752 370.48 193.56 370.48 196.728ZM350.968 203.064C353.32 203.064 355.072 202.512 356.224 201.408C357.376 200.304 357.952 198.744 357.952 196.728C357.952 194.712 357.376 193.152 356.224 192.048C355.072 190.944 353.32 190.392 350.968 190.392H344.272V203.064H350.968ZM374.442 210.84C374.442 206.712 375.21 203.088 376.746 199.968C378.33 196.848 380.466 194.448 383.154 192.768C385.842 191.088 388.842 190.248 392.154 190.248C394.986 190.248 397.458 190.824 399.57 191.976C401.73 193.128 403.386 194.64 404.538 196.512V190.824H416.85V231H404.538V225.312C403.338 227.184 401.658 228.696 399.498 229.848C397.386 231 394.914 231.576 392.082 231.576C388.818 231.576 385.842 230.736 383.154 229.056C380.466 227.328 378.33 224.904 376.746 221.784C375.21 218.616 374.442 214.968 374.442 210.84ZM404.538 210.912C404.538 207.84 403.674 205.416 401.946 203.64C400.266 201.864 398.202 200.976 395.754 200.976C393.306 200.976 391.218 201.864 389.49 203.64C387.81 205.368 386.97 207.768 386.97 210.84C386.97 213.912 387.81 216.36 389.49 218.184C391.218 219.96 393.306 220.848 395.754 220.848C398.202 220.848 400.266 219.96 401.946 218.184C403.674 216.408 404.538 213.984 404.538 210.912ZM438.069 177.72V231H425.757V177.72H438.069ZM453.183 186.648C451.023 186.648 449.247 186.024 447.855 184.776C446.511 183.48 445.839 181.896 445.839 180.024C445.839 178.104 446.511 176.52 447.855 175.272C449.247 173.976 451.023 173.328 453.183 173.328C455.295 173.328 457.023 173.976 458.367 175.272C459.759 176.52 460.455 178.104 460.455 180.024C460.455 181.896 459.759 183.48 458.367 184.776C457.023 186.024 455.295 186.648 453.183 186.648ZM459.303 190.824V231H446.991V190.824H459.303ZM492.706 190.392C497.41 190.392 501.154 191.928 503.938 195C506.77 198.024 508.186 202.2 508.186 207.528V231H495.946V209.184C495.946 206.496 495.25 204.408 493.858 202.92C492.466 201.432 490.594 200.688 488.242 200.688C485.89 200.688 484.018 201.432 482.626 202.92C481.234 204.408 480.538 206.496 480.538 209.184V231H468.226V190.824H480.538V196.152C481.786 194.376 483.466 192.984 485.578 191.976C487.69 190.92 490.066 190.392 492.706 190.392ZM532.005 190.248C534.837 190.248 537.309 190.824 539.421 191.976C541.581 193.128 543.237 194.64 544.389 196.512V190.824H556.701V230.928C556.701 234.624 555.957 237.96 554.469 240.936C553.029 243.96 550.797 246.36 547.773 248.136C544.797 249.912 541.077 250.8 536.613 250.8C530.661 250.8 525.837 249.384 522.141 246.552C518.445 243.768 516.333 239.976 515.805 235.176H527.973C528.357 236.712 529.269 237.912 530.709 238.776C532.149 239.688 533.925 240.144 536.037 240.144C538.581 240.144 540.597 239.4 542.085 237.912C543.621 236.472 544.389 234.144 544.389 230.928V225.24C543.189 227.112 541.533 228.648 539.421 229.848C537.309 231 534.837 231.576 532.005 231.576C528.693 231.576 525.693 230.736 523.005 229.056C520.317 227.328 518.181 224.904 516.597 221.784C515.061 218.616 514.293 214.968 514.293 210.84C514.293 206.712 515.061 203.088 516.597 199.968C518.181 196.848 520.317 194.448 523.005 192.768C525.693 191.088 528.693 190.248 532.005 190.248ZM544.389 210.912C544.389 207.84 543.525 205.416 541.797 203.64C540.117 201.864 538.053 200.976 535.605 200.976C533.157 200.976 531.069 201.864 529.341 203.64C527.661 205.368 526.821 207.768 526.821 210.84C526.821 213.912 527.661 216.36 529.341 218.184C531.069 219.96 533.157 220.848 535.605 220.848C538.053 220.848 540.117 219.96 541.797 218.184C543.525 216.408 544.389 213.984 544.389 210.912ZM626.082 231H613.77L593.178 199.824V231H580.866V180.456H593.178L613.77 211.776V180.456H626.082V231ZM676.047 190.824L650.847 250.08H637.599L646.815 229.632L630.471 190.824H644.223L653.511 215.952L662.727 190.824H676.047ZM678.051 210.84C678.051 206.712 678.819 203.088 680.355 199.968C681.939 196.848 684.075 194.448 686.763 192.768C689.451 191.088 692.451 190.248 695.763 190.248C698.595 190.248 701.067 190.824 703.179 191.976C705.339 193.128 706.995 194.64 708.147 196.512V190.824H720.459V231H708.147V225.312C706.947 227.184 705.267 228.696 703.107 229.848C700.995 231 698.523 231.576 695.691 231.576C692.427 231.576 689.451 230.736 686.763 229.056C684.075 227.328 681.939 224.904 680.355 221.784C678.819 218.616 678.051 214.968 678.051 210.84ZM708.147 210.912C708.147 207.84 707.283 205.416 705.555 203.64C703.875 201.864 701.811 200.976 699.363 200.976C696.915 200.976 694.827 201.864 693.099 203.64C691.419 205.368 690.579 207.768 690.579 210.84C690.579 213.912 691.419 216.36 693.099 218.184C694.827 219.96 696.915 220.848 699.363 220.848C701.811 220.848 703.875 219.96 705.555 218.184C707.283 216.408 708.147 213.984 708.147 210.912ZM780.63 190.392C785.622 190.392 789.582 191.904 792.51 194.928C795.486 197.952 796.974 202.152 796.974 207.528V231H784.734V209.184C784.734 206.592 784.038 204.6 782.646 203.208C781.302 201.768 779.43 201.048 777.03 201.048C774.63 201.048 772.734 201.768 771.342 203.208C769.998 204.6 769.326 206.592 769.326 209.184V231H757.086V209.184C757.086 206.592 756.39 204.6 754.998 203.208C753.654 201.768 751.782 201.048 749.382 201.048C746.982 201.048 745.086 201.768 743.694 203.208C742.35 204.6 741.678 206.592 741.678 209.184V231H729.366V190.824H741.678V195.864C742.926 194.184 744.558 192.864 746.574 191.904C748.59 190.896 750.87 190.392 753.414 190.392C756.438 190.392 759.126 191.04 761.478 192.336C763.878 193.632 765.75 195.48 767.094 197.88C768.486 195.672 770.382 193.872 772.782 192.48C775.182 191.088 777.798 190.392 780.63 190.392ZM803.137 210.84C803.137 206.712 803.905 203.088 805.441 199.968C807.025 196.848 809.161 194.448 811.849 192.768C814.537 191.088 817.537 190.248 820.849 190.248C823.681 190.248 826.153 190.824 828.265 191.976C830.425 193.128 832.081 194.64 833.233 196.512V190.824H845.545V231H833.233V225.312C832.033 227.184 830.353 228.696 828.193 229.848C826.081 231 823.609 231.576 820.777 231.576C817.513 231.576 814.537 230.736 811.849 229.056C809.161 227.328 807.025 224.904 805.441 221.784C803.905 218.616 803.137 214.968 803.137 210.84ZM833.233 210.912C833.233 207.84 832.369 205.416 830.641 203.64C828.961 201.864 826.897 200.976 824.449 200.976C822.001 200.976 819.913 201.864 818.185 203.64C816.505 205.368 815.665 207.768 815.665 210.84C815.665 213.912 816.505 216.36 818.185 218.184C819.913 219.96 822.001 220.848 824.449 220.848C826.897 220.848 828.961 219.96 830.641 218.184C832.369 216.408 833.233 213.984 833.233 210.912ZM878.932 190.392C883.636 190.392 887.38 191.928 890.164 195C892.996 198.024 894.412 202.2 894.412 207.528V231H882.172V209.184C882.172 206.496 881.476 204.408 880.084 202.92C878.692 201.432 876.82 200.688 874.468 200.688C872.116 200.688 870.244 201.432 868.852 202.92C867.46 204.408 866.764 206.496 866.764 209.184V231H854.452V190.824H866.764V196.152C868.012 194.376 869.692 192.984 871.804 191.976C873.916 190.92 876.292 190.392 878.932 190.392Z" fill="white"/>
<path d="M675.611 254.168C674.379 254.168 673.275 253.968 672.299 253.568C671.323 253.168 670.539 252.576 669.947 251.792C669.371 251.008 669.067 250.064 669.035 248.96H673.403C673.467 249.584 673.683 250.064 674.051 250.4C674.419 250.72 674.899 250.88 675.491 250.88C676.099 250.88 676.579 250.744 676.931 250.472C677.283 250.184 677.459 249.792 677.459 249.296C677.459 248.88 677.315 248.536 677.027 248.264C676.755 247.992 676.411 247.768 675.995 247.592C675.595 247.416 675.019 247.216 674.267 246.992C673.179 246.656 672.291 246.32 671.603 245.984C670.915 245.648 670.323 245.152 669.827 244.496C669.331 243.84 669.083 242.984 669.083 241.928C669.083 240.36 669.651 239.136 670.787 238.256C671.923 237.36 673.403 236.912 675.227 236.912C677.083 236.912 678.579 237.36 679.715 238.256C680.851 239.136 681.459 240.368 681.539 241.952H677.099C677.067 241.408 676.867 240.984 676.499 240.68C676.131 240.36 675.659 240.2 675.083 240.2C674.587 240.2 674.187 240.336 673.883 240.608C673.579 240.864 673.427 241.24 673.427 241.736C673.427 242.28 673.683 242.704 674.195 243.008C674.707 243.312 675.507 243.64 676.595 243.992C677.683 244.36 678.563 244.712 679.235 245.048C679.923 245.384 680.515 245.872 681.011 246.512C681.507 247.152 681.755 247.976 681.755 248.984C681.755 249.944 681.507 250.816 681.011 251.6C680.531 252.384 679.827 253.008 678.899 253.472C677.971 253.936 676.875 254.168 675.611 254.168ZM696.905 247.088C696.905 247.472 696.881 247.872 696.833 248.288H687.545C687.609 249.12 687.873 249.76 688.337 250.208C688.817 250.64 689.401 250.856 690.089 250.856C691.113 250.856 691.825 250.424 692.225 249.56H696.593C696.369 250.44 695.961 251.232 695.369 251.936C694.793 252.64 694.065 253.192 693.185 253.592C692.305 253.992 691.321 254.192 690.233 254.192C688.921 254.192 687.753 253.912 686.729 253.352C685.705 252.792 684.905 251.992 684.329 250.952C683.753 249.912 683.465 248.696 683.465 247.304C683.465 245.912 683.745 244.696 684.305 243.656C684.881 242.616 685.681 241.816 686.705 241.256C687.729 240.696 688.905 240.416 690.233 240.416C691.529 240.416 692.681 240.688 693.689 241.232C694.697 241.776 695.481 242.552 696.041 243.56C696.617 244.568 696.905 245.744 696.905 247.088ZM692.705 246.008C692.705 245.304 692.465 244.744 691.985 244.328C691.505 243.912 690.905 243.704 690.185 243.704C689.497 243.704 688.913 243.904 688.433 244.304C687.969 244.704 687.681 245.272 687.569 246.008H692.705ZM707.23 240.464C708.798 240.464 710.046 240.976 710.974 242C711.918 243.008 712.39 244.4 712.39 246.176V254H708.31V246.728C708.31 245.832 708.078 245.136 707.614 244.64C707.15 244.144 706.526 243.896 705.742 243.896C704.958 243.896 704.334 244.144 703.87 244.64C703.406 245.136 703.174 245.832 703.174 246.728V254H699.07V240.608H703.174V242.384C703.59 241.792 704.15 241.328 704.854 240.992C705.558 240.64 706.35 240.464 707.23 240.464ZM728.922 240.608L720.522 260.36H716.106L719.178 253.544L713.73 240.608H718.314L721.41 248.984L724.482 240.608H728.922ZM729.59 247.28C729.59 245.904 729.846 244.696 730.358 243.656C730.886 242.616 731.598 241.816 732.494 241.256C733.39 240.696 734.39 240.416 735.494 240.416C736.438 240.416 737.262 240.608 737.966 240.992C738.686 241.376 739.238 241.88 739.622 242.504V240.608H743.726V254H739.622V252.104C739.222 252.728 738.662 253.232 737.942 253.616C737.238 254 736.414 254.192 735.47 254.192C734.382 254.192 733.39 253.912 732.494 253.352C731.598 252.776 730.886 251.968 730.358 250.928C729.846 249.872 729.59 248.656 729.59 247.28ZM739.622 247.304C739.622 246.28 739.334 245.472 738.758 244.88C738.198 244.288 737.51 243.992 736.694 243.992C735.878 243.992 735.182 244.288 734.606 244.88C734.046 245.456 733.766 246.256 733.766 247.28C733.766 248.304 734.046 249.12 734.606 249.728C735.182 250.32 735.878 250.616 736.694 250.616C737.51 250.616 738.198 250.32 738.758 249.728C739.334 249.136 739.622 248.328 739.622 247.304ZM763.783 240.464C765.447 240.464 766.767 240.968 767.743 241.976C768.735 242.984 769.231 244.384 769.231 246.176V254H765.151V246.728C765.151 245.864 764.919 245.2 764.455 244.736C764.007 244.256 763.383 244.016 762.583 244.016C761.783 244.016 761.151 244.256 760.687 244.736C760.239 245.2 760.015 245.864 760.015 246.728V254H755.935V246.728C755.935 245.864 755.703 245.2 755.239 244.736C754.791 244.256 754.167 244.016 753.367 244.016C752.567 244.016 751.935 244.256 751.471 244.736C751.023 245.2 750.799 245.864 750.799 246.728V254H746.695V240.608H750.799V242.288C751.215 241.728 751.759 241.288 752.431 240.968C753.103 240.632 753.863 240.464 754.711 240.464C755.719 240.464 756.615 240.68 757.399 241.112C758.199 241.544 758.823 242.16 759.271 242.96C759.735 242.224 760.367 241.624 761.167 241.16C761.967 240.696 762.839 240.464 763.783 240.464ZM771.285 247.28C771.285 245.904 771.541 244.696 772.053 243.656C772.581 242.616 773.293 241.816 774.189 241.256C775.085 240.696 776.085 240.416 777.189 240.416C778.133 240.416 778.957 240.608 779.661 240.992C780.381 241.376 780.933 241.88 781.317 242.504V240.608H785.421V254H781.317V252.104C780.917 252.728 780.357 253.232 779.637 253.616C778.933 254 778.109 254.192 777.165 254.192C776.077 254.192 775.085 253.912 774.189 253.352C773.293 252.776 772.581 251.968 772.053 250.928C771.541 249.872 771.285 248.656 771.285 247.28ZM781.317 247.304C781.317 246.28 781.029 245.472 780.453 244.88C779.893 244.288 779.205 243.992 778.389 243.992C777.573 243.992 776.877 244.288 776.301 244.88C775.741 245.456 775.461 246.256 775.461 247.28C775.461 248.304 775.741 249.12 776.301 249.728C776.877 250.32 777.573 250.616 778.389 250.616C779.205 250.616 779.893 250.32 780.453 249.728C781.029 249.136 781.317 248.328 781.317 247.304ZM796.55 240.464C798.118 240.464 799.366 240.976 800.294 242C801.238 243.008 801.71 244.4 801.71 246.176V254H797.63V246.728C797.63 245.832 797.398 245.136 796.934 244.64C796.47 244.144 795.846 243.896 795.062 243.896C794.278 243.896 793.654 244.144 793.19 244.64C792.726 245.136 792.494 245.832 792.494 246.728V254H788.39V240.608H792.494V242.384C792.91 241.792 793.47 241.328 794.174 240.992C794.878 240.64 795.67 240.464 796.55 240.464ZM815.744 254.168C814.512 254.168 813.408 253.968 812.432 253.568C811.456 253.168 810.672 252.576 810.08 251.792C809.504 251.008 809.2 250.064 809.168 248.96H813.536C813.6 249.584 813.816 250.064 814.184 250.4C814.552 250.72 815.032 250.88 815.624 250.88C816.232 250.88 816.712 250.744 817.064 250.472C817.416 250.184 817.592 249.792 817.592 249.296C817.592 248.88 817.448 248.536 817.16 248.264C816.888 247.992 816.544 247.768 816.128 247.592C815.728 247.416 815.152 247.216 814.4 246.992C813.312 246.656 812.424 246.32 811.736 245.984C811.048 245.648 810.456 245.152 809.96 244.496C809.464 243.84 809.216 242.984 809.216 241.928C809.216 240.36 809.784 239.136 810.92 238.256C812.056 237.36 813.536 236.912 815.36 236.912C817.216 236.912 818.712 237.36 819.848 238.256C820.984 239.136 821.592 240.368 821.672 241.952H817.232C817.2 241.408 817 240.984 816.632 240.68C816.264 240.36 815.792 240.2 815.216 240.2C814.72 240.2 814.32 240.336 814.016 240.608C813.712 240.864 813.56 241.24 813.56 241.736C813.56 242.28 813.816 242.704 814.328 243.008C814.84 243.312 815.64 243.64 816.728 243.992C817.816 244.36 818.696 244.712 819.368 245.048C820.056 245.384 820.648 245.872 821.144 246.512C821.64 247.152 821.888 247.976 821.888 248.984C821.888 249.944 821.64 250.816 821.144 251.6C820.664 252.384 819.96 253.008 819.032 253.472C818.104 253.936 817.008 254.168 815.744 254.168ZM837.038 247.088C837.038 247.472 837.014 247.872 836.966 248.288H827.678C827.742 249.12 828.006 249.76 828.47 250.208C828.95 250.64 829.534 250.856 830.222 250.856C831.246 250.856 831.958 250.424 832.358 249.56H836.726C836.502 250.44 836.094 251.232 835.502 251.936C834.926 252.64 834.198 253.192 833.318 253.592C832.438 253.992 831.454 254.192 830.366 254.192C829.054 254.192 827.886 253.912 826.862 253.352C825.838 252.792 825.038 251.992 824.462 250.952C823.886 249.912 823.598 248.696 823.598 247.304C823.598 245.912 823.878 244.696 824.438 243.656C825.014 242.616 825.814 241.816 826.838 241.256C827.862 240.696 829.038 240.416 830.366 240.416C831.662 240.416 832.814 240.688 833.822 241.232C834.83 241.776 835.614 242.552 836.174 243.56C836.75 244.568 837.038 245.744 837.038 247.088ZM832.838 246.008C832.838 245.304 832.598 244.744 832.118 244.328C831.638 243.912 831.038 243.704 830.318 243.704C829.63 243.704 829.046 243.904 828.566 244.304C828.102 244.704 827.814 245.272 827.702 246.008H832.838ZM847.363 240.464C848.931 240.464 850.179 240.976 851.107 242C852.051 243.008 852.523 244.4 852.523 246.176V254H848.443V246.728C848.443 245.832 848.211 245.136 847.747 244.64C847.283 244.144 846.659 243.896 845.875 243.896C845.091 243.896 844.467 244.144 844.003 244.64C843.539 245.136 843.307 245.832 843.307 246.728V254H839.203V240.608H843.307V242.384C843.723 241.792 844.283 241.328 844.987 240.992C845.691 240.64 846.483 240.464 847.363 240.464ZM869.055 240.608L860.655 260.36H856.239L859.311 253.544L853.863 240.608H858.447L861.543 248.984L864.615 240.608H869.055ZM883.763 240.608V254H879.659V252.176C879.243 252.768 878.675 253.248 877.955 253.616C877.251 253.968 876.467 254.144 875.603 254.144C874.579 254.144 873.675 253.92 872.891 253.472C872.107 253.008 871.499 252.344 871.067 251.48C870.635 250.616 870.419 249.6 870.419 248.432V240.608H874.499V247.88C874.499 248.776 874.731 249.472 875.195 249.968C875.659 250.464 876.283 250.712 877.067 250.712C877.867 250.712 878.499 250.464 878.963 249.968C879.427 249.472 879.659 248.776 879.659 247.88V240.608H883.763ZM903.799 240.464C905.463 240.464 906.783 240.968 907.759 241.976C908.751 242.984 909.247 244.384 909.247 246.176V254H905.167V246.728C905.167 245.864 904.935 245.2 904.471 244.736C904.023 244.256 903.399 244.016 902.599 244.016C901.799 244.016 901.167 244.256 900.703 244.736C900.255 245.2 900.031 245.864 900.031 246.728V254H895.951V246.728C895.951 245.864 895.719 245.2 895.255 244.736C894.807 244.256 894.183 244.016 893.383 244.016C892.583 244.016 891.951 244.256 891.487 244.736C891.039 245.2 890.815 245.864 890.815 246.728V254H886.711V240.608H890.815V242.288C891.231 241.728 891.775 241.288 892.447 240.968C893.119 240.632 893.879 240.464 894.727 240.464C895.735 240.464 896.631 240.68 897.415 241.112C898.215 241.544 898.839 242.16 899.287 242.96C899.751 242.224 900.383 241.624 901.183 241.16C901.983 240.696 902.855 240.464 903.799 240.464ZM911.301 247.28C911.301 245.904 911.557 244.696 912.069 243.656C912.597 242.616 913.309 241.816 914.205 241.256C915.101 240.696 916.101 240.416 917.205 240.416C918.149 240.416 918.973 240.608 919.677 240.992C920.397 241.376 920.949 241.88 921.333 242.504V240.608H925.437V254H921.333V252.104C920.933 252.728 920.373 253.232 919.653 253.616C918.949 254 918.125 254.192 917.181 254.192C916.093 254.192 915.101 253.912 914.205 253.352C913.309 252.776 912.597 251.968 912.069 250.928C911.557 249.872 911.301 248.656 911.301 247.28ZM921.333 247.304C921.333 246.28 921.045 245.472 920.469 244.88C919.909 244.288 919.221 243.992 918.405 243.992C917.589 243.992 916.893 244.288 916.317 244.88C915.757 245.456 915.477 246.256 915.477 247.28C915.477 248.304 915.757 249.12 916.317 249.728C916.893 250.32 917.589 250.616 918.405 250.616C919.221 250.616 919.909 250.32 920.469 249.728C921.045 249.136 921.333 248.328 921.333 247.304ZM936.566 240.464C938.134 240.464 939.382 240.976 940.31 242C941.254 243.008 941.726 244.4 941.726 246.176V254H937.646V246.728C937.646 245.832 937.414 245.136 936.95 244.64C936.486 244.144 935.862 243.896 935.078 243.896C934.294 243.896 933.67 244.144 933.206 244.64C932.742 245.136 932.51 245.832 932.51 246.728V254H928.406V240.608H932.51V242.384C932.926 241.792 933.486 241.328 934.19 240.992C934.894 240.64 935.686 240.464 936.566 240.464ZM955.976 237.152C957.752 237.152 959.304 237.504 960.632 238.208C961.96 238.912 962.984 239.904 963.704 241.184C964.44 242.448 964.808 243.912 964.808 245.576C964.808 247.224 964.44 248.688 963.704 249.968C962.984 251.248 961.952 252.24 960.608 252.944C959.28 253.648 957.736 254 955.976 254H949.664V237.152H955.976ZM955.712 250.448C957.264 250.448 958.472 250.024 959.336 249.176C960.2 248.328 960.632 247.128 960.632 245.576C960.632 244.024 960.2 242.816 959.336 241.952C958.472 241.088 957.264 240.656 955.712 240.656H953.768V250.448H955.712ZM973.197 254.192C971.885 254.192 970.701 253.912 969.645 253.352C968.605 252.792 967.781 251.992 967.173 250.952C966.581 249.912 966.285 248.696 966.285 247.304C966.285 245.928 966.589 244.72 967.197 243.68C967.805 242.624 968.637 241.816 969.693 241.256C970.749 240.696 971.933 240.416 973.245 240.416C974.557 240.416 975.741 240.696 976.797 241.256C977.853 241.816 978.685 242.624 979.293 243.68C979.901 244.72 980.205 245.928 980.205 247.304C980.205 248.68 979.893 249.896 979.269 250.952C978.661 251.992 977.821 252.792 976.749 253.352C975.693 253.912 974.509 254.192 973.197 254.192ZM973.197 250.64C973.981 250.64 974.645 250.352 975.189 249.776C975.749 249.2 976.029 248.376 976.029 247.304C976.029 246.232 975.757 245.408 975.213 244.832C974.685 244.256 974.029 243.968 973.245 243.968C972.445 243.968 971.781 244.256 971.253 244.832C970.725 245.392 970.461 246.216 970.461 247.304C970.461 248.376 970.717 249.2 971.229 249.776C971.757 250.352 972.413 250.64 973.197 250.64ZM984.447 239.216C983.727 239.216 983.135 239.008 982.671 238.592C982.223 238.16 981.999 237.632 981.999 237.008C981.999 236.368 982.223 235.84 982.671 235.424C983.135 234.992 983.727 234.776 984.447 234.776C985.151 234.776 985.727 234.992 986.175 235.424C986.639 235.84 986.871 236.368 986.871 237.008C986.871 237.632 986.639 238.16 986.175 238.592C985.727 239.008 985.151 239.216 984.447 239.216ZM986.487 240.608V254H982.383V240.608H986.487Z" fill="white"/>
</svg>
